<!DOCTYPE svg PUBLIC "-//W3C//DTD SVG 1.1//EN" "http://www.w3.org/Graphics/SVG/1.1/DTD/svg11.dtd">

<!-- Uploaded to: SVG Repo, www.svgrepo.com, Transformed by: SVG Repo Mixer Tools -->
<svg fill="#003366" version="1.1" id="Layer_1" xmlns="http://www.w3.org/2000/svg" xmlns:xlink="http://www.w3.org/1999/xlink" width="800px" height="800px" viewBox="0 0 256 160" enable-background="new 0 0 256 160" xml:space="preserve">

<g id="SVGRepo_bgCarrier" stroke-width="0"/>

<g id="SVGRepo_tracerCarrier" stroke-linecap="round" stroke-linejoin="round"/>

<g id="SVGRepo_iconCarrier"> <path d="M252,113h-5V91c0-7.4-5.52-13-13-13h-24c-0.5,0-1.1-0.27-1.44-0.6l-37.4-36.41c-1.68-1.68-3.72-2.91-6.16-2.99h-27v92h40 c0.92,0,1.83-1.16,2-2c2.52-14.46,14.83-25.43,30.04-25.43c15.22,0,27.82,11.01,30.34,25.47c0.17,0.93,1.7,1.96,2.62,1.96h2 c4.79,0,9-4.31,9-9.02v-6.22C254,113.84,253.01,113,252,113z M191,78h-41c-1.01,0-2-0.99-2-2l-0.04-25.85 c0-1.01,1.03-2.15,2.04-2.15h13c0.5,0,1.52,0.55,1.94,0.89L192,75C193.01,76.26,192.6,78,191,78z M2,2v119.44 c0,4.48,3.52,8.56,8,8.56h22c0.92,0,1.83-1.16,2-2c2.52-14.46,15.33-24.44,30.54-24.44s27.82,10.02,30.34,24.48 c0.17,0.93,1.2,1.96,2.12,1.96h33V2H2z M101.03,81.94h-71.2v-54h71.2V81.94z M95.81,73.47V36.48L77.34,54.94L95.81,73.47z M69.6,55.67l22.7-22.7H38.17L60.8,55.6C63.18,57.92,67.28,57.99,69.6,55.67z M72.91,59.24c-4.17,4.17-11.12,4.17-15.49,0 l-0.79-0.72L38.24,76.91H92.3L73.7,58.45L72.91,59.24z M34.86,36.48l-0.07,36.99l18.46-18.53L34.86,36.48z M38.17,76.98l0.07-0.07 h-0.07V76.98z M210.04,110.48c-12.77,0-23.11,10.33-23.11,23.11c0,12.77,10.34,23.11,23.11,23.11c12.78,0,23.12-10.34,23.12-23.11 C233.16,120.81,222.82,110.48,210.04,110.48z M210.04,142.44c-4.85,0-8.85-4-8.85-8.85c0-4.85,4-8.85,8.85-8.85 c4.86,0,8.86,4,8.86,8.85C218.9,138.44,214.9,142.44,210.04,142.44z M64.54,111.46c-12.78,0-23.11,10.34-23.11,23.11 c0,12.78,10.33,23.12,23.11,23.12c12.77,0,23.11-10.34,23.11-23.12C87.65,121.8,77.31,111.46,64.54,111.46z M64.54,143.43 c-4.85,0-8.85-4-8.85-8.86c0-4.85,4-8.85,8.85-8.85s8.85,4,8.85,8.85C73.39,139.43,69.39,143.43,64.54,143.43z"/> </g>

</svg>